<mxfile host="app.diagrams.net" agent="Mozilla/5.0 (Windows NT 10.0; Win64; x64) AppleWebKit/537.36 (KHTML, like Gecko) Chrome/132.0.0.0 Safari/537.36" version="26.0.10">
  <diagram name="Pagina-1" id="Cask4P6zOecqn1dag-0K">
    <mxGraphModel dx="2901" dy="2267" grid="1" gridSize="10" guides="1" tooltips="1" connect="1" arrows="1" fold="1" page="1" pageScale="1" pageWidth="827" pageHeight="1169" math="0" shadow="0">
      <root>
        <mxCell id="0" />
        <mxCell id="1" parent="0" />
        <mxCell id="WzjSoubMxnXMTuT5CGQT-1" value="START" style="ellipse;whiteSpace=wrap;html=1;" parent="1" vertex="1">
          <mxGeometry x="340" y="-70" width="120" height="80" as="geometry" />
        </mxCell>
        <mxCell id="WzjSoubMxnXMTuT5CGQT-2" value="&lt;p style=&quot;box-sizing: border-box; margin-top: 0px; margin-bottom: 1rem; color: rgb(29, 33, 37); font-family: -apple-system, BlinkMacSystemFont, &amp;quot;Segoe UI&amp;quot;, Roboto, &amp;quot;Helvetica Neue&amp;quot;, Arial, &amp;quot;Noto Sans&amp;quot;, &amp;quot;Liberation Sans&amp;quot;, sans-serif, &amp;quot;Apple Color Emoji&amp;quot;, &amp;quot;Segoe UI Emoji&amp;quot;, &amp;quot;Segoe UI Symbol&amp;quot;, &amp;quot;Noto Color Emoji&amp;quot;; font-size: 15px; font-style: normal; font-variant-ligatures: normal; font-variant-caps: normal; font-weight: 400; letter-spacing: normal; orphans: 2; text-align: left; text-indent: 0px; text-transform: none; widows: 2; word-spacing: 0px; -webkit-text-stroke-width: 0px; white-space: normal; background-color: rgb(255, 255, 255); text-decoration-thickness: initial; text-decoration-style: initial; text-decoration-color: initial;&quot;&gt;Sviluppare un algoritmo che chieda all’utente di inserire 7 temperature (una per ogni giorno della settimana). L&#39;algoritmo&amp;nbsp;deve:&lt;/p&gt;&lt;ul style=&quot;box-sizing: border-box; margin-top: 0px; margin-bottom: 1rem; color: rgb(29, 33, 37); font-family: -apple-system, BlinkMacSystemFont, &amp;quot;Segoe UI&amp;quot;, Roboto, &amp;quot;Helvetica Neue&amp;quot;, Arial, &amp;quot;Noto Sans&amp;quot;, &amp;quot;Liberation Sans&amp;quot;, sans-serif, &amp;quot;Apple Color Emoji&amp;quot;, &amp;quot;Segoe UI Emoji&amp;quot;, &amp;quot;Segoe UI Symbol&amp;quot;, &amp;quot;Noto Color Emoji&amp;quot;; font-size: 15px; font-style: normal; font-variant-ligatures: normal; font-variant-caps: normal; font-weight: 400; letter-spacing: normal; orphans: 2; text-align: left; text-indent: 0px; text-transform: none; widows: 2; word-spacing: 0px; -webkit-text-stroke-width: 0px; white-space: normal; background-color: rgb(255, 255, 255); text-decoration-thickness: initial; text-decoration-style: initial; text-decoration-color: initial;&quot;&gt;&lt;li style=&quot;box-sizing: border-box;&quot;&gt;calcolare la temperatura media,&lt;/li&gt;&lt;li style=&quot;box-sizing: border-box;&quot;&gt;controllare se tutte le temperature sono comprese tra 10 e 30 (usando l&#39;operatore logico combinato in un ciclo):&lt;ul style=&quot;box-sizing: border-box; margin-top: 0px; margin-bottom: 0px;&quot;&gt;&lt;li style=&quot;box-sizing: border-box;&quot;&gt;Se sì, mostrare “Temperatura nella norma”.&lt;/li&gt;&lt;/ul&gt;&lt;/li&gt;&lt;li style=&quot;box-sizing: border-box;&quot;&gt;verificare se almeno una temperatura è maggiore di 35 o minore di 5:&lt;ul style=&quot;box-sizing: border-box; margin-top: 0px; margin-bottom: 0px;&quot;&gt;&lt;li style=&quot;box-sizing: border-box;&quot;&gt;Se sì, mostrare “Allerta temperatura”.&lt;/li&gt;&lt;/ul&gt;&lt;/li&gt;&lt;/ul&gt;&lt;p id=&quot;yui_3_18_1_1_1738243304020_158&quot; style=&quot;box-sizing: border-box; margin-top: 0px; margin-bottom: 1rem; color: rgb(29, 33, 37); font-family: -apple-system, BlinkMacSystemFont, &amp;quot;Segoe UI&amp;quot;, Roboto, &amp;quot;Helvetica Neue&amp;quot;, Arial, &amp;quot;Noto Sans&amp;quot;, &amp;quot;Liberation Sans&amp;quot;, sans-serif, &amp;quot;Apple Color Emoji&amp;quot;, &amp;quot;Segoe UI Emoji&amp;quot;, &amp;quot;Segoe UI Symbol&amp;quot;, &amp;quot;Noto Color Emoji&amp;quot;; font-size: 15px; font-style: normal; font-variant-ligatures: normal; font-variant-caps: normal; font-weight: 400; letter-spacing: normal; orphans: 2; text-align: left; text-indent: 0px; text-transform: none; widows: 2; word-spacing: 0px; -webkit-text-stroke-width: 0px; white-space: normal; background-color: rgb(255, 255, 255); text-decoration-thickness: initial; text-decoration-style: initial; text-decoration-color: initial;&quot;&gt;Mostrare in output il giorno della temperatura più alta e il giorno della temperatura più bassa espresso numericamente (es. 1 per lunedì, 2 per martedì, ecc.).&lt;/p&gt;" style="text;whiteSpace=wrap;html=1;" parent="1" vertex="1">
          <mxGeometry x="-270" y="180" width="484" height="220" as="geometry" />
        </mxCell>
        <mxCell id="WzjSoubMxnXMTuT5CGQT-10" value="" style="edgeStyle=orthogonalEdgeStyle;rounded=0;orthogonalLoop=1;jettySize=auto;html=1;" parent="1" source="WzjSoubMxnXMTuT5CGQT-3" target="WzjSoubMxnXMTuT5CGQT-4" edge="1">
          <mxGeometry relative="1" as="geometry" />
        </mxCell>
        <mxCell id="WzjSoubMxnXMTuT5CGQT-3" value="somma = 0" style="rounded=0;whiteSpace=wrap;html=1;" parent="1" vertex="1">
          <mxGeometry x="340" y="290" width="120" height="60" as="geometry" />
        </mxCell>
        <mxCell id="WzjSoubMxnXMTuT5CGQT-11" value="" style="edgeStyle=orthogonalEdgeStyle;rounded=0;orthogonalLoop=1;jettySize=auto;html=1;" parent="1" source="WzjSoubMxnXMTuT5CGQT-4" target="WzjSoubMxnXMTuT5CGQT-5" edge="1">
          <mxGeometry relative="1" as="geometry" />
        </mxCell>
        <mxCell id="WzjSoubMxnXMTuT5CGQT-4" value="highest = -INF" style="rounded=0;whiteSpace=wrap;html=1;" parent="1" vertex="1">
          <mxGeometry x="340" y="410" width="120" height="60" as="geometry" />
        </mxCell>
        <mxCell id="WzjSoubMxnXMTuT5CGQT-12" value="" style="edgeStyle=orthogonalEdgeStyle;rounded=0;orthogonalLoop=1;jettySize=auto;html=1;" parent="1" source="WzjSoubMxnXMTuT5CGQT-5" target="WzjSoubMxnXMTuT5CGQT-6" edge="1">
          <mxGeometry relative="1" as="geometry" />
        </mxCell>
        <mxCell id="WzjSoubMxnXMTuT5CGQT-5" value="lowest = INF" style="rounded=0;whiteSpace=wrap;html=1;" parent="1" vertex="1">
          <mxGeometry x="340" y="525" width="120" height="60" as="geometry" />
        </mxCell>
        <mxCell id="WzjSoubMxnXMTuT5CGQT-13" value="" style="edgeStyle=orthogonalEdgeStyle;rounded=0;orthogonalLoop=1;jettySize=auto;html=1;" parent="1" source="WzjSoubMxnXMTuT5CGQT-6" target="WzjSoubMxnXMTuT5CGQT-7" edge="1">
          <mxGeometry relative="1" as="geometry" />
        </mxCell>
        <mxCell id="WzjSoubMxnXMTuT5CGQT-6" value="hightemp = 0" style="rounded=0;whiteSpace=wrap;html=1;" parent="1" vertex="1">
          <mxGeometry x="340" y="650" width="120" height="60" as="geometry" />
        </mxCell>
        <mxCell id="WzjSoubMxnXMTuT5CGQT-14" value="" style="edgeStyle=orthogonalEdgeStyle;rounded=0;orthogonalLoop=1;jettySize=auto;html=1;" parent="1" source="WzjSoubMxnXMTuT5CGQT-7" target="WzjSoubMxnXMTuT5CGQT-8" edge="1">
          <mxGeometry relative="1" as="geometry" />
        </mxCell>
        <mxCell id="WzjSoubMxnXMTuT5CGQT-7" value="lowtemp = 0" style="rounded=0;whiteSpace=wrap;html=1;" parent="1" vertex="1">
          <mxGeometry x="340" y="770" width="120" height="60" as="geometry" />
        </mxCell>
        <mxCell id="WzjSoubMxnXMTuT5CGQT-16" value="" style="edgeStyle=orthogonalEdgeStyle;rounded=0;orthogonalLoop=1;jettySize=auto;html=1;" parent="1" source="WzjSoubMxnXMTuT5CGQT-8" target="WzjSoubMxnXMTuT5CGQT-15" edge="1">
          <mxGeometry relative="1" as="geometry" />
        </mxCell>
        <mxCell id="WzjSoubMxnXMTuT5CGQT-8" value="i = 0" style="rounded=0;whiteSpace=wrap;html=1;" parent="1" vertex="1">
          <mxGeometry x="340" y="880" width="120" height="60" as="geometry" />
        </mxCell>
        <mxCell id="WzjSoubMxnXMTuT5CGQT-19" value="" style="edgeStyle=orthogonalEdgeStyle;rounded=0;orthogonalLoop=1;jettySize=auto;html=1;" parent="1" source="WzjSoubMxnXMTuT5CGQT-15" target="WzjSoubMxnXMTuT5CGQT-18" edge="1">
          <mxGeometry relative="1" as="geometry" />
        </mxCell>
        <mxCell id="WzjSoubMxnXMTuT5CGQT-22" value="TRUE" style="edgeLabel;html=1;align=center;verticalAlign=middle;resizable=0;points=[];" parent="WzjSoubMxnXMTuT5CGQT-19" vertex="1" connectable="0">
          <mxGeometry x="0.12" y="-4" relative="1" as="geometry">
            <mxPoint as="offset" />
          </mxGeometry>
        </mxCell>
        <mxCell id="WzjSoubMxnXMTuT5CGQT-23" style="edgeStyle=orthogonalEdgeStyle;rounded=0;orthogonalLoop=1;jettySize=auto;html=1;" parent="1" source="WzjSoubMxnXMTuT5CGQT-15" edge="1">
          <mxGeometry relative="1" as="geometry">
            <mxPoint x="300" y="1040" as="targetPoint" />
          </mxGeometry>
        </mxCell>
        <mxCell id="WzjSoubMxnXMTuT5CGQT-25" value="FALSE" style="edgeLabel;html=1;align=center;verticalAlign=middle;resizable=0;points=[];" parent="WzjSoubMxnXMTuT5CGQT-23" vertex="1" connectable="0">
          <mxGeometry x="-0.1736" relative="1" as="geometry">
            <mxPoint as="offset" />
          </mxGeometry>
        </mxCell>
        <mxCell id="WzjSoubMxnXMTuT5CGQT-15" value="i &amp;lt; 7" style="rhombus;whiteSpace=wrap;html=1;" parent="1" vertex="1">
          <mxGeometry x="360" y="1000" width="80" height="80" as="geometry" />
        </mxCell>
        <mxCell id="WzjSoubMxnXMTuT5CGQT-27" value="" style="edgeStyle=orthogonalEdgeStyle;rounded=0;orthogonalLoop=1;jettySize=auto;html=1;" parent="1" source="WzjSoubMxnXMTuT5CGQT-18" target="WzjSoubMxnXMTuT5CGQT-26" edge="1">
          <mxGeometry relative="1" as="geometry" />
        </mxCell>
        <mxCell id="WzjSoubMxnXMTuT5CGQT-18" value="Read N" style="shape=parallelogram;perimeter=parallelogramPerimeter;whiteSpace=wrap;html=1;fixedSize=1;" parent="1" vertex="1">
          <mxGeometry x="340" y="1130" width="120" height="60" as="geometry" />
        </mxCell>
        <mxCell id="WzjSoubMxnXMTuT5CGQT-29" style="edgeStyle=orthogonalEdgeStyle;rounded=0;orthogonalLoop=1;jettySize=auto;html=1;" parent="1" source="WzjSoubMxnXMTuT5CGQT-20" edge="1">
          <mxGeometry relative="1" as="geometry">
            <mxPoint x="520" y="1400" as="targetPoint" />
          </mxGeometry>
        </mxCell>
        <mxCell id="WzjSoubMxnXMTuT5CGQT-30" value="FALSE" style="edgeLabel;html=1;align=center;verticalAlign=middle;resizable=0;points=[];" parent="WzjSoubMxnXMTuT5CGQT-29" vertex="1" connectable="0">
          <mxGeometry x="0.0062" y="-3" relative="1" as="geometry">
            <mxPoint x="-1" y="1" as="offset" />
          </mxGeometry>
        </mxCell>
        <mxCell id="WzjSoubMxnXMTuT5CGQT-31" style="edgeStyle=orthogonalEdgeStyle;rounded=0;orthogonalLoop=1;jettySize=auto;html=1;" parent="1" source="WzjSoubMxnXMTuT5CGQT-20" edge="1">
          <mxGeometry relative="1" as="geometry">
            <mxPoint x="400" y="1510" as="targetPoint" />
          </mxGeometry>
        </mxCell>
        <mxCell id="WzjSoubMxnXMTuT5CGQT-32" value="TRUE" style="edgeLabel;html=1;align=center;verticalAlign=middle;resizable=0;points=[];" parent="WzjSoubMxnXMTuT5CGQT-31" vertex="1" connectable="0">
          <mxGeometry x="0.1766" y="2" relative="1" as="geometry">
            <mxPoint as="offset" />
          </mxGeometry>
        </mxCell>
        <mxCell id="WzjSoubMxnXMTuT5CGQT-20" value="N &amp;gt; highest" style="rhombus;whiteSpace=wrap;html=1;" parent="1" vertex="1">
          <mxGeometry x="360" y="1360" width="80" height="80" as="geometry" />
        </mxCell>
        <mxCell id="zmko_stbsxOPnSDHgi_f-9" value="" style="edgeStyle=orthogonalEdgeStyle;rounded=0;orthogonalLoop=1;jettySize=auto;html=1;" edge="1" parent="1" source="WzjSoubMxnXMTuT5CGQT-24" target="zmko_stbsxOPnSDHgi_f-8">
          <mxGeometry relative="1" as="geometry" />
        </mxCell>
        <mxCell id="WzjSoubMxnXMTuT5CGQT-24" value="media = somma / i" style="rounded=0;whiteSpace=wrap;html=1;" parent="1" vertex="1">
          <mxGeometry x="180" y="1010" width="120" height="60" as="geometry" />
        </mxCell>
        <mxCell id="WzjSoubMxnXMTuT5CGQT-28" value="" style="edgeStyle=orthogonalEdgeStyle;rounded=0;orthogonalLoop=1;jettySize=auto;html=1;" parent="1" source="WzjSoubMxnXMTuT5CGQT-26" target="WzjSoubMxnXMTuT5CGQT-20" edge="1">
          <mxGeometry relative="1" as="geometry" />
        </mxCell>
        <mxCell id="WzjSoubMxnXMTuT5CGQT-26" value="i += 1&lt;br&gt;somma += N" style="rounded=0;whiteSpace=wrap;html=1;" parent="1" vertex="1">
          <mxGeometry x="340" y="1240" width="120" height="60" as="geometry" />
        </mxCell>
        <mxCell id="WzjSoubMxnXMTuT5CGQT-34" style="edgeStyle=orthogonalEdgeStyle;rounded=0;orthogonalLoop=1;jettySize=auto;html=1;" parent="1" source="WzjSoubMxnXMTuT5CGQT-33" target="WzjSoubMxnXMTuT5CGQT-35" edge="1">
          <mxGeometry relative="1" as="geometry">
            <mxPoint x="550" y="1420" as="targetPoint" />
          </mxGeometry>
        </mxCell>
        <mxCell id="WzjSoubMxnXMTuT5CGQT-33" value="highest = N&lt;br&gt;hightemp = i" style="rounded=0;whiteSpace=wrap;html=1;" parent="1" vertex="1">
          <mxGeometry x="340" y="1510" width="120" height="60" as="geometry" />
        </mxCell>
        <mxCell id="WzjSoubMxnXMTuT5CGQT-36" style="edgeStyle=orthogonalEdgeStyle;rounded=0;orthogonalLoop=1;jettySize=auto;html=1;" parent="1" source="WzjSoubMxnXMTuT5CGQT-35" target="WzjSoubMxnXMTuT5CGQT-37" edge="1">
          <mxGeometry relative="1" as="geometry">
            <mxPoint x="610" y="1400" as="targetPoint" />
          </mxGeometry>
        </mxCell>
        <mxCell id="WzjSoubMxnXMTuT5CGQT-35" value="" style="ellipse;whiteSpace=wrap;html=1;aspect=fixed;" parent="1" vertex="1">
          <mxGeometry x="520" y="1385" width="30" height="30" as="geometry" />
        </mxCell>
        <mxCell id="WzjSoubMxnXMTuT5CGQT-39" value="" style="edgeStyle=orthogonalEdgeStyle;rounded=0;orthogonalLoop=1;jettySize=auto;html=1;" parent="1" source="WzjSoubMxnXMTuT5CGQT-37" target="WzjSoubMxnXMTuT5CGQT-38" edge="1">
          <mxGeometry relative="1" as="geometry" />
        </mxCell>
        <mxCell id="WzjSoubMxnXMTuT5CGQT-42" value="TRUE" style="edgeLabel;html=1;align=center;verticalAlign=middle;resizable=0;points=[];" parent="WzjSoubMxnXMTuT5CGQT-39" vertex="1" connectable="0">
          <mxGeometry relative="1" as="geometry">
            <mxPoint as="offset" />
          </mxGeometry>
        </mxCell>
        <mxCell id="WzjSoubMxnXMTuT5CGQT-41" style="edgeStyle=orthogonalEdgeStyle;rounded=0;orthogonalLoop=1;jettySize=auto;html=1;" parent="1" source="WzjSoubMxnXMTuT5CGQT-37" edge="1">
          <mxGeometry relative="1" as="geometry">
            <mxPoint x="780" y="1400" as="targetPoint" />
          </mxGeometry>
        </mxCell>
        <mxCell id="WzjSoubMxnXMTuT5CGQT-44" value="FALSE" style="edgeLabel;html=1;align=center;verticalAlign=middle;resizable=0;points=[];" parent="WzjSoubMxnXMTuT5CGQT-41" vertex="1" connectable="0">
          <mxGeometry x="-0.1823" y="3" relative="1" as="geometry">
            <mxPoint as="offset" />
          </mxGeometry>
        </mxCell>
        <mxCell id="WzjSoubMxnXMTuT5CGQT-37" value="N &amp;lt; lowest" style="rhombus;whiteSpace=wrap;html=1;" parent="1" vertex="1">
          <mxGeometry x="610" y="1360" width="80" height="80" as="geometry" />
        </mxCell>
        <mxCell id="WzjSoubMxnXMTuT5CGQT-40" style="edgeStyle=orthogonalEdgeStyle;rounded=0;orthogonalLoop=1;jettySize=auto;html=1;" parent="1" source="WzjSoubMxnXMTuT5CGQT-38" edge="1">
          <mxGeometry relative="1" as="geometry">
            <mxPoint x="800" y="1410" as="targetPoint" />
          </mxGeometry>
        </mxCell>
        <mxCell id="WzjSoubMxnXMTuT5CGQT-38" value="lowest = N&lt;br&gt;lowtemp = i" style="rounded=0;whiteSpace=wrap;html=1;" parent="1" vertex="1">
          <mxGeometry x="590" y="1510" width="120" height="60" as="geometry" />
        </mxCell>
        <mxCell id="WzjSoubMxnXMTuT5CGQT-51" style="edgeStyle=orthogonalEdgeStyle;rounded=0;orthogonalLoop=1;jettySize=auto;html=1;exitX=1;exitY=0.5;exitDx=0;exitDy=0;entryX=0;entryY=0.5;entryDx=0;entryDy=0;" parent="1" source="WzjSoubMxnXMTuT5CGQT-43" edge="1" target="zmko_stbsxOPnSDHgi_f-44">
          <mxGeometry relative="1" as="geometry">
            <mxPoint x="950" y="1245" as="targetPoint" />
          </mxGeometry>
        </mxCell>
        <mxCell id="WzjSoubMxnXMTuT5CGQT-52" value="FALSE" style="edgeLabel;html=1;align=center;verticalAlign=middle;resizable=0;points=[];" parent="WzjSoubMxnXMTuT5CGQT-51" vertex="1" connectable="0">
          <mxGeometry x="0.1046" y="-2" relative="1" as="geometry">
            <mxPoint x="-14" y="-2" as="offset" />
          </mxGeometry>
        </mxCell>
        <mxCell id="zmko_stbsxOPnSDHgi_f-98" style="edgeStyle=orthogonalEdgeStyle;rounded=0;orthogonalLoop=1;jettySize=auto;html=1;entryX=0;entryY=0.5;entryDx=0;entryDy=0;" edge="1" parent="1" source="WzjSoubMxnXMTuT5CGQT-43" target="zmko_stbsxOPnSDHgi_f-87">
          <mxGeometry relative="1" as="geometry">
            <Array as="points">
              <mxPoint x="950" y="1780" />
            </Array>
          </mxGeometry>
        </mxCell>
        <mxCell id="zmko_stbsxOPnSDHgi_f-99" value="TRUE" style="edgeLabel;html=1;align=center;verticalAlign=middle;resizable=0;points=[];" vertex="1" connectable="0" parent="zmko_stbsxOPnSDHgi_f-98">
          <mxGeometry x="-0.8641" y="-3" relative="1" as="geometry">
            <mxPoint as="offset" />
          </mxGeometry>
        </mxCell>
        <mxCell id="WzjSoubMxnXMTuT5CGQT-43" value="N &amp;gt;= 10&lt;br&gt;AND&amp;nbsp;&lt;br&gt;N &amp;lt;= 30" style="rhombus;whiteSpace=wrap;html=1;" parent="1" vertex="1">
          <mxGeometry x="910" y="1355" width="80" height="80" as="geometry" />
        </mxCell>
        <mxCell id="WzjSoubMxnXMTuT5CGQT-47" style="edgeStyle=orthogonalEdgeStyle;rounded=0;orthogonalLoop=1;jettySize=auto;html=1;entryX=0;entryY=0.5;entryDx=0;entryDy=0;" parent="1" source="WzjSoubMxnXMTuT5CGQT-46" target="WzjSoubMxnXMTuT5CGQT-43" edge="1">
          <mxGeometry relative="1" as="geometry">
            <mxPoint x="800" y="1320" as="targetPoint" />
          </mxGeometry>
        </mxCell>
        <mxCell id="WzjSoubMxnXMTuT5CGQT-46" value="" style="ellipse;whiteSpace=wrap;html=1;aspect=fixed;" parent="1" vertex="1">
          <mxGeometry x="785" y="1380" width="30" height="30" as="geometry" />
        </mxCell>
        <mxCell id="zmko_stbsxOPnSDHgi_f-89" value="" style="edgeStyle=orthogonalEdgeStyle;rounded=0;orthogonalLoop=1;jettySize=auto;html=1;" edge="1" parent="1" source="WzjSoubMxnXMTuT5CGQT-53" target="zmko_stbsxOPnSDHgi_f-6">
          <mxGeometry relative="1" as="geometry" />
        </mxCell>
        <mxCell id="zmko_stbsxOPnSDHgi_f-90" value="TRUE" style="edgeLabel;html=1;align=center;verticalAlign=middle;resizable=0;points=[];" vertex="1" connectable="0" parent="zmko_stbsxOPnSDHgi_f-89">
          <mxGeometry x="-0.28" y="2" relative="1" as="geometry">
            <mxPoint as="offset" />
          </mxGeometry>
        </mxCell>
        <mxCell id="WzjSoubMxnXMTuT5CGQT-53" value="N &amp;lt; 5&lt;br&gt;OR&lt;br&gt;N &amp;gt; 35" style="rhombus;whiteSpace=wrap;html=1;" parent="1" vertex="1">
          <mxGeometry x="1090" y="1470" width="80" height="80" as="geometry" />
        </mxCell>
        <mxCell id="WzjSoubMxnXMTuT5CGQT-69" value="" style="edgeStyle=orthogonalEdgeStyle;rounded=0;orthogonalLoop=1;jettySize=auto;html=1;" parent="1" source="WzjSoubMxnXMTuT5CGQT-66" target="WzjSoubMxnXMTuT5CGQT-68" edge="1">
          <mxGeometry relative="1" as="geometry" />
        </mxCell>
        <mxCell id="WzjSoubMxnXMTuT5CGQT-66" value="Write lowtemp, lowest, hightemp, highest, media" style="shape=parallelogram;perimeter=parallelogramPerimeter;whiteSpace=wrap;html=1;fixedSize=1;" parent="1" vertex="1">
          <mxGeometry x="-413" y="750" width="120" height="60" as="geometry" />
        </mxCell>
        <mxCell id="WzjSoubMxnXMTuT5CGQT-68" value="END" style="ellipse;whiteSpace=wrap;html=1;" parent="1" vertex="1">
          <mxGeometry x="-630" y="740" width="120" height="80" as="geometry" />
        </mxCell>
        <mxCell id="zmko_stbsxOPnSDHgi_f-4" value="" style="edgeStyle=orthogonalEdgeStyle;rounded=0;orthogonalLoop=1;jettySize=auto;html=1;" edge="1" parent="1" source="zmko_stbsxOPnSDHgi_f-1" target="zmko_stbsxOPnSDHgi_f-2">
          <mxGeometry relative="1" as="geometry" />
        </mxCell>
        <mxCell id="zmko_stbsxOPnSDHgi_f-1" value="temp_norm = True" style="rounded=0;whiteSpace=wrap;html=1;" vertex="1" parent="1">
          <mxGeometry x="340" y="60" width="120" height="60" as="geometry" />
        </mxCell>
        <mxCell id="zmko_stbsxOPnSDHgi_f-3" value="" style="edgeStyle=orthogonalEdgeStyle;rounded=0;orthogonalLoop=1;jettySize=auto;html=1;" edge="1" parent="1" source="zmko_stbsxOPnSDHgi_f-2" target="WzjSoubMxnXMTuT5CGQT-3">
          <mxGeometry relative="1" as="geometry" />
        </mxCell>
        <mxCell id="zmko_stbsxOPnSDHgi_f-2" value="temp_alert = False" style="rounded=0;whiteSpace=wrap;html=1;" vertex="1" parent="1">
          <mxGeometry x="340" y="170" width="120" height="60" as="geometry" />
        </mxCell>
        <mxCell id="zmko_stbsxOPnSDHgi_f-96" style="edgeStyle=orthogonalEdgeStyle;rounded=0;orthogonalLoop=1;jettySize=auto;html=1;" edge="1" parent="1" source="zmko_stbsxOPnSDHgi_f-6">
          <mxGeometry relative="1" as="geometry">
            <mxPoint x="1130" y="1770" as="targetPoint" />
          </mxGeometry>
        </mxCell>
        <mxCell id="zmko_stbsxOPnSDHgi_f-6" value="&lt;div&gt;&lt;br&gt;&lt;/div&gt;&lt;div&gt;&lt;br&gt;&lt;/div&gt;temp_alert = True&lt;br&gt;&lt;br&gt;&lt;div&gt;&lt;br&gt;&lt;/div&gt;" style="rounded=0;whiteSpace=wrap;html=1;" vertex="1" parent="1">
          <mxGeometry x="1070" y="1620" width="120" height="60" as="geometry" />
        </mxCell>
        <mxCell id="zmko_stbsxOPnSDHgi_f-10" style="edgeStyle=orthogonalEdgeStyle;rounded=0;orthogonalLoop=1;jettySize=auto;html=1;entryX=1;entryY=0.5;entryDx=0;entryDy=0;" edge="1" parent="1" source="zmko_stbsxOPnSDHgi_f-8" target="zmko_stbsxOPnSDHgi_f-11">
          <mxGeometry relative="1" as="geometry">
            <mxPoint x="-90" y="1040" as="targetPoint" />
          </mxGeometry>
        </mxCell>
        <mxCell id="zmko_stbsxOPnSDHgi_f-13" value="TRUE" style="edgeLabel;html=1;align=center;verticalAlign=middle;resizable=0;points=[];" vertex="1" connectable="0" parent="zmko_stbsxOPnSDHgi_f-10">
          <mxGeometry x="-0.1823" y="3" relative="1" as="geometry">
            <mxPoint x="105" y="-93" as="offset" />
          </mxGeometry>
        </mxCell>
        <mxCell id="zmko_stbsxOPnSDHgi_f-15" value="" style="edgeStyle=orthogonalEdgeStyle;rounded=0;orthogonalLoop=1;jettySize=auto;html=1;entryX=0.5;entryY=1;entryDx=0;entryDy=0;" edge="1" parent="1" source="zmko_stbsxOPnSDHgi_f-8" target="zmko_stbsxOPnSDHgi_f-22">
          <mxGeometry relative="1" as="geometry">
            <mxPoint x="40" y="910" as="targetPoint" />
          </mxGeometry>
        </mxCell>
        <mxCell id="zmko_stbsxOPnSDHgi_f-16" value="FALSE" style="edgeLabel;html=1;align=center;verticalAlign=middle;resizable=0;points=[];" vertex="1" connectable="0" parent="zmko_stbsxOPnSDHgi_f-15">
          <mxGeometry x="-0.2333" y="-4" relative="1" as="geometry">
            <mxPoint x="-104" y="75" as="offset" />
          </mxGeometry>
        </mxCell>
        <mxCell id="zmko_stbsxOPnSDHgi_f-8" value="temp_alert == False&amp;nbsp;" style="rhombus;whiteSpace=wrap;html=1;" vertex="1" parent="1">
          <mxGeometry x="-20" y="990" width="160" height="100" as="geometry" />
        </mxCell>
        <mxCell id="zmko_stbsxOPnSDHgi_f-53" style="edgeStyle=orthogonalEdgeStyle;rounded=0;orthogonalLoop=1;jettySize=auto;html=1;entryX=0;entryY=0.5;entryDx=0;entryDy=0;exitX=0.558;exitY=-0.05;exitDx=0;exitDy=0;exitPerimeter=0;" edge="1" parent="1" source="zmko_stbsxOPnSDHgi_f-11" target="zmko_stbsxOPnSDHgi_f-22">
          <mxGeometry relative="1" as="geometry">
            <Array as="points">
              <mxPoint x="-123" y="890" />
            </Array>
          </mxGeometry>
        </mxCell>
        <mxCell id="zmko_stbsxOPnSDHgi_f-11" value="Write &quot;alert temp&quot;" style="shape=parallelogram;perimeter=parallelogramPerimeter;whiteSpace=wrap;html=1;fixedSize=1;" vertex="1" parent="1">
          <mxGeometry x="-190" y="1010" width="120" height="60" as="geometry" />
        </mxCell>
        <mxCell id="zmko_stbsxOPnSDHgi_f-55" value="" style="edgeStyle=orthogonalEdgeStyle;rounded=0;orthogonalLoop=1;jettySize=auto;html=1;" edge="1" parent="1" source="zmko_stbsxOPnSDHgi_f-14" target="zmko_stbsxOPnSDHgi_f-19">
          <mxGeometry relative="1" as="geometry" />
        </mxCell>
        <mxCell id="zmko_stbsxOPnSDHgi_f-56" value="TRUE" style="edgeLabel;html=1;align=center;verticalAlign=middle;resizable=0;points=[];" vertex="1" connectable="0" parent="zmko_stbsxOPnSDHgi_f-55">
          <mxGeometry x="0.0286" y="3" relative="1" as="geometry">
            <mxPoint as="offset" />
          </mxGeometry>
        </mxCell>
        <mxCell id="zmko_stbsxOPnSDHgi_f-60" style="edgeStyle=orthogonalEdgeStyle;rounded=0;orthogonalLoop=1;jettySize=auto;html=1;entryX=0.5;entryY=0;entryDx=0;entryDy=0;" edge="1" parent="1" source="zmko_stbsxOPnSDHgi_f-14" target="zmko_stbsxOPnSDHgi_f-61">
          <mxGeometry relative="1" as="geometry">
            <mxPoint x="-180" y="630" as="targetPoint" />
            <Array as="points">
              <mxPoint x="60" y="630" />
              <mxPoint x="-210" y="630" />
            </Array>
          </mxGeometry>
        </mxCell>
        <mxCell id="zmko_stbsxOPnSDHgi_f-64" value="FALSE" style="edgeLabel;html=1;align=center;verticalAlign=middle;resizable=0;points=[];" vertex="1" connectable="0" parent="zmko_stbsxOPnSDHgi_f-60">
          <mxGeometry x="-0.6114" y="-1" relative="1" as="geometry">
            <mxPoint y="71" as="offset" />
          </mxGeometry>
        </mxCell>
        <mxCell id="zmko_stbsxOPnSDHgi_f-14" value="temp_norm&lt;br&gt;==&lt;br&gt;True" style="rhombus;whiteSpace=wrap;html=1;" vertex="1" parent="1">
          <mxGeometry x="5" y="740" width="110" height="80" as="geometry" />
        </mxCell>
        <mxCell id="zmko_stbsxOPnSDHgi_f-59" style="edgeStyle=orthogonalEdgeStyle;rounded=0;orthogonalLoop=1;jettySize=auto;html=1;entryX=1;entryY=0.5;entryDx=0;entryDy=0;" edge="1" parent="1" source="zmko_stbsxOPnSDHgi_f-19" target="zmko_stbsxOPnSDHgi_f-61">
          <mxGeometry relative="1" as="geometry">
            <mxPoint x="-190" y="660" as="targetPoint" />
          </mxGeometry>
        </mxCell>
        <mxCell id="zmko_stbsxOPnSDHgi_f-19" value="Write &quot;normal temp&quot;" style="shape=parallelogram;perimeter=parallelogramPerimeter;whiteSpace=wrap;html=1;fixedSize=1;" vertex="1" parent="1">
          <mxGeometry x="-160" y="750" width="120" height="60" as="geometry" />
        </mxCell>
        <mxCell id="zmko_stbsxOPnSDHgi_f-71" value="" style="edgeStyle=orthogonalEdgeStyle;rounded=0;orthogonalLoop=1;jettySize=auto;html=1;" edge="1" parent="1" source="zmko_stbsxOPnSDHgi_f-22" target="zmko_stbsxOPnSDHgi_f-14">
          <mxGeometry relative="1" as="geometry" />
        </mxCell>
        <mxCell id="zmko_stbsxOPnSDHgi_f-22" value="" style="ellipse;whiteSpace=wrap;html=1;aspect=fixed;" vertex="1" parent="1">
          <mxGeometry x="50" y="880" width="20" height="20" as="geometry" />
        </mxCell>
        <mxCell id="zmko_stbsxOPnSDHgi_f-74" value="" style="edgeStyle=orthogonalEdgeStyle;rounded=0;orthogonalLoop=1;jettySize=auto;html=1;" edge="1" parent="1" source="zmko_stbsxOPnSDHgi_f-44" target="WzjSoubMxnXMTuT5CGQT-53">
          <mxGeometry relative="1" as="geometry" />
        </mxCell>
        <mxCell id="zmko_stbsxOPnSDHgi_f-100" style="edgeStyle=orthogonalEdgeStyle;rounded=0;orthogonalLoop=1;jettySize=auto;html=1;entryX=1;entryY=0.5;entryDx=0;entryDy=0;exitX=1;exitY=0.5;exitDx=0;exitDy=0;" edge="1" parent="1" source="WzjSoubMxnXMTuT5CGQT-53" target="zmko_stbsxOPnSDHgi_f-87">
          <mxGeometry relative="1" as="geometry">
            <Array as="points">
              <mxPoint x="1270" y="1510" />
              <mxPoint x="1270" y="1780" />
            </Array>
          </mxGeometry>
        </mxCell>
        <mxCell id="zmko_stbsxOPnSDHgi_f-102" value="FALSE" style="edgeLabel;html=1;align=center;verticalAlign=middle;resizable=0;points=[];" vertex="1" connectable="0" parent="zmko_stbsxOPnSDHgi_f-100">
          <mxGeometry x="-0.828" y="3" relative="1" as="geometry">
            <mxPoint as="offset" />
          </mxGeometry>
        </mxCell>
        <mxCell id="zmko_stbsxOPnSDHgi_f-44" value="temp_norm = False" style="rounded=0;whiteSpace=wrap;html=1;" vertex="1" parent="1">
          <mxGeometry x="1070" y="1365" width="120" height="60" as="geometry" />
        </mxCell>
        <mxCell id="zmko_stbsxOPnSDHgi_f-63" value="" style="edgeStyle=orthogonalEdgeStyle;rounded=0;orthogonalLoop=1;jettySize=auto;html=1;" edge="1" parent="1" source="zmko_stbsxOPnSDHgi_f-61" target="WzjSoubMxnXMTuT5CGQT-66">
          <mxGeometry relative="1" as="geometry" />
        </mxCell>
        <mxCell id="zmko_stbsxOPnSDHgi_f-61" value="" style="ellipse;whiteSpace=wrap;html=1;aspect=fixed;" vertex="1" parent="1">
          <mxGeometry x="-220" y="770" width="20" height="20" as="geometry" />
        </mxCell>
        <mxCell id="zmko_stbsxOPnSDHgi_f-66" value="" style="edgeStyle=orthogonalEdgeStyle;rounded=0;orthogonalLoop=1;jettySize=auto;html=1;" edge="1" parent="1" target="zmko_stbsxOPnSDHgi_f-1">
          <mxGeometry relative="1" as="geometry">
            <mxPoint x="400" y="10" as="sourcePoint" />
          </mxGeometry>
        </mxCell>
        <mxCell id="zmko_stbsxOPnSDHgi_f-101" style="edgeStyle=orthogonalEdgeStyle;rounded=0;orthogonalLoop=1;jettySize=auto;html=1;" edge="1" parent="1" source="zmko_stbsxOPnSDHgi_f-87" target="WzjSoubMxnXMTuT5CGQT-15">
          <mxGeometry relative="1" as="geometry">
            <mxPoint x="1430" y="1070" as="targetPoint" />
            <Array as="points">
              <mxPoint x="1130" y="1820" />
              <mxPoint x="1431" y="1820" />
              <mxPoint x="1431" y="1040" />
            </Array>
          </mxGeometry>
        </mxCell>
        <mxCell id="zmko_stbsxOPnSDHgi_f-87" value="" style="ellipse;whiteSpace=wrap;html=1;aspect=fixed;" vertex="1" parent="1">
          <mxGeometry x="1120" y="1770" width="20" height="20" as="geometry" />
        </mxCell>
      </root>
    </mxGraphModel>
  </diagram>
</mxfile>
